# xmcd
#
# Track frame offsets: 
#        150
#        19647
#        38145
#        60802
#        82932
#        100962
#        120270
#        143175
#        164727
#        188182
#        205530
#        223585
#        243997
#
# Disc length: 3475 seconds
#
# Revision: 2
# Processed by: cddbd v1.5.2PL0 Copyright (c) Steve Scherf et al.
# Submitted via: ExactAudioCopy v0.99pb5
#
DISCID=a30d910d
DTITLE=Monchy Y Alexandra - Confesiones...
DYEAR=2002
DGENRE=Bachata
TTITLE0=Te Quiero Igual Que Ayer
TTITLE1=Dos Locos
TTITLE2=Eras Diferente
TTITLE3=No Regresaré
TTITLE4=Ven, Dime Como Hago
TTITLE5=Cuando No Se Puede Olvidar
TTITLE6=Te Amaría
TTITLE7=El Precio De Tu Engaño
TTITLE8=Aquí Estaré
TTITLE9=En Un Dos Por Tres
TTITLE10=El Soñador
TTITLE11=Te Quiero Igual Que Ayer (Merengue)
TTITLE12=Te Quiero Igual Que Ayer (Balada)
EXTD=YEAR: 2002
EXTT0=
EXTT1=
EXTT2=
EXTT3=
EXTT4=
EXTT5=
EXTT6=
EXTT7=
EXTT8=
EXTT9=
EXTT10=
EXTT11=
EXTT12=
PLAYORDER=
